<svg xmlns="http://www.w3.org/2000/svg" width="13" height="13" viewBox="0 0 13 13">
    <g fill="none" fill-rule="evenodd">
        <g fill="#7D86A9" fill-rule="nonzero">
            <g>
                <g>
                    <path d="M12.757 11.602L8.848 7.69c.566-.796.902-1.767.902-2.819C9.75 2.181 7.57 0 4.883 0 2.195 0 .016 2.181.016 4.871c0 2.69 2.18 4.871 4.867 4.871 1.05 0 2.02-.336 2.816-.902l3.909 3.912c.158.158.366.238.574.238.209 0 .417-.08.575-.238.317-.318.317-.833 0-1.15zm-5.23-4.854l-.32.45-.448.319c-.553.393-1.202.602-1.876.602-1.789 0-3.244-1.457-3.244-3.248 0-1.79 1.455-3.247 3.244-3.247 1.79 0 3.245 1.457 3.245 3.247 0 .674-.208 1.324-.602 1.877z" transform="translate(-495 -426) translate(91 415) translate(404 11)"/>
                </g>
            </g>
        </g>
    </g>
</svg>
