<svg xmlns="http://www.w3.org/2000/svg" width="16" height="16" viewBox="0 0 16 16">
    <g fill="none" fill-rule="evenodd">
        <g fill="#37AE22">
            <g>
                <g>
                    <path d="M904 6c4.418 0 8 3.582 8 8s-3.582 8-8 8-8-3.582-8-8 3.582-8 8-8zm3.057 4.39l-4.39 4.391-1.724-1.724c-.52-.52-1.365-.52-1.886 0-.52.52-.52 1.365 0 1.886l2.667 2.666c.52.521 1.365.521 1.885 0l5.334-5.333c.52-.52.52-1.365 0-1.885-.52-.521-1.365-.521-1.886 0z" transform="translate(-1012 -568) translate(42 493) translate(74 69)"/>
                </g>
            </g>
        </g>
    </g>
</svg>
