<svg xmlns="http://www.w3.org/2000/svg" width="16" height="16" viewBox="0 0 16 16">
    <g fill="none" fill-rule="evenodd">
        <g fill="#C1C1C1">
            <g>
                <g>
                    <path d="M903 12c4.418 0 8 3.582 8 8s-3.582 8-8 8-8-3.582-8-8 3.582-8 8-8zm4.595 5.29l-7.304 7.305c.794.47 1.72.738 2.709.738 2.946 0 5.333-2.387 5.333-5.333 0-.99-.269-1.915-.738-2.71zM903 14.668c-2.946 0-5.333 2.387-5.333 5.333 0 .99.269 1.915.738 2.71l7.304-7.305c-.794-.47-1.72-.738-2.709-.738z" transform="translate(-1012 -642) translate(42 493) translate(75 137)"/>
                </g>
            </g>
        </g>
    </g>
</svg>
