<svg xmlns="http://www.w3.org/2000/svg" width="16" height="16" viewBox="0 0 16 16">
    <g fill="none" fill-rule="evenodd">
        <g fill-rule="nonzero">
            <g>
                <g>
                    <path fill="#FFF" d="M8.436 15h-.848c-.733-.003-1.325-.596-1.328-1.328.002-.06-.033-.116-.088-.14-.265-.09-.523-.198-.772-.323-.057-.024-.123-.01-.164.036-.52.52-1.363.52-1.884 0l-.585-.585c-.519-.519-.519-1.36 0-1.878.045-.042.059-.107.035-.164-.126-.25-.233-.507-.322-.772-.024-.056-.08-.09-.14-.088-.732-.003-1.325-.596-1.328-1.328v-.854c.003-.732.596-1.325 1.328-1.328.06.002.116-.033.14-.088.089-.265.196-.523.322-.772.024-.057.01-.122-.035-.164-.519-.519-.519-1.36 0-1.878l.585-.585c.52-.516 1.358-.516 1.878 0 .042.04.104.052.158.029.25-.125.507-.233.772-.322.055-.024.09-.08.088-.14.003-.733.596-1.325 1.328-1.328h.848c.732.003 1.325.595 1.328 1.328-.003.06.032.116.088.14.265.089.523.196.772.322.054.022.116.011.158-.03.519-.518 1.36-.518 1.878 0l.585.586c.515.52.515 1.358 0 1.878-.045.042-.059.107-.035.164.126.249.233.507.322.772.024.055.08.09.14.088.732.003 1.325.596 1.328 1.328v.854c-.003.732-.596 1.325-1.328 1.328-.06-.003-.116.032-.14.088l-.047.14c-.089.31-.412.491-.723.402-.31-.088-.491-.412-.402-.722.006-.025.015-.049.025-.072l.04-.123c.183-.535.687-.894 1.253-.889.087 0 .158-.07.158-.158V7.57c0-.087-.07-.158-.158-.158-.566.005-1.07-.354-1.252-.889-.07-.213-.157-.42-.257-.62-.25-.508-.147-1.119.257-1.515.061-.06.063-.158.003-.22l-.003-.003-.585-.585c-.062-.06-.16-.06-.222 0-.397.404-1.008.508-1.516.258-.2-.1-.407-.187-.62-.258-.535-.182-.894-.686-.89-1.252 0-.087-.07-.158-.157-.158h-.848c-.088 0-.158.071-.158.158.004.566-.354 1.07-.89 1.252-.212.071-.42.157-.62.258-.507.25-1.118.146-1.515-.258-.062-.06-.16-.06-.222 0l-.585.585c-.063.06-.066.16-.005.224l.005.004c.404.397.508 1.008.257 1.516-.1.2-.187.407-.257.62-.182.535-.687.894-1.252.89-.088 0-.158.07-.158.157v.854c0 .088.07.158.158.158.565-.005 1.07.354 1.252.89.07.212.156.42.257.62.25.507.147 1.118-.257 1.515-.062.06-.063.159-.003.22l.003.002.585.585c.063.062.164.062.228 0 .397-.407 1.012-.51 1.52-.257.201.1.408.186.621.257.535.182.894.687.89 1.252 0 .087.07.158.157.158h.848c.088 0 .158-.07.158-.158-.004-.565.354-1.07.89-1.252l.11-.04c.305-.114.642.04.755.344.114.304-.041.642-.345.755l-.146.053c-.058.022-.095.078-.094.14-.002.732-.595 1.325-1.327 1.328zm4.932-1.65c.227-.228.227-.596 0-.825L10.536 9.6c-.11-.115-.262-.18-.421-.181-.16 0-.312.066-.421.181-.89.937-2.372.975-3.309.085-.937-.89-.975-2.371-.085-3.308.89-.937 2.372-.975 3.309-.085.466.442.729 1.057.728 1.7 0 .322.262.584.585.584.323 0 .585-.262.585-.585 0-1.938-1.572-3.51-3.51-3.51-1.939 0-3.51 1.572-3.51 3.51 0 1.94 1.571 3.51 3.51 3.51.75 0 1.48-.24 2.083-.684l2.445 2.527c.228.227.597.227.825 0l.018.006z" transform="translate(-584 -426) translate(573 418) translate(11 8)"/>
                </g>
            </g>
        </g>
    </g>
</svg>
