<svg xmlns="http://www.w3.org/2000/svg" width="228" height="96" viewBox="0 0 228 96">
    <g fill="none" fill-rule="evenodd">
        <g>
            <g>
                <g>
                    <g opacity=".254">
                        <g>
                            <path fill="#32C4AA" fill-rule="nonzero" d="M6.633 76.633c0 1.792-1.454 3.245-3.247 3.245-1.794 0-3.248-1.453-3.248-3.245 0-1.791 1.454-3.244 3.248-3.244 1.793 0 3.247 1.453 3.247 3.244" opacity=".2" transform="translate(-99 -228) translate(98 226) translate(1 2) translate(0 5)"/>
                            <path fill="#FED150" fill-rule="nonzero" d="M149.146 81.202c0 3.235-2.625 5.858-5.863 5.858-3.238 0-5.863-2.623-5.863-5.858 0-3.235 2.625-5.857 5.863-5.857 3.238 0 5.863 2.622 5.863 5.857" transform="translate(-99 -228) translate(98 226) translate(1 2) translate(0 5)"/>
                            <path fill="#EB3D72" fill-rule="nonzero" d="M139.59 29.838c5.43 0 9.833 4.398 9.833 9.823 0 5.424-4.402 9.822-9.832 9.822-5.43 0-9.832-4.398-9.832-9.822 0-5.425 4.402-9.823 9.832-9.823" opacity=".8" transform="translate(-99 -228) translate(98 226) translate(1 2) translate(0 5)"/>
                            <path fill="#FED150" fill-rule="nonzero" d="M202.1 8.407c3.238 0 5.863 2.622 5.863 5.857 0 3.235-2.625 5.858-5.863 5.858-3.238 0-5.863-2.623-5.863-5.858 0-3.235 2.625-5.857 5.863-5.857" opacity=".6" transform="translate(-99 -228) translate(98 226) translate(1 2) translate(0 5)"/>
                            <g fill="#FED150" fill-rule="nonzero">
                                <path d="M15.82 1.072c.09-.825-.866-1.378-1.548-.888L9.7 3.48c-.287.208-.665.24-.997.082l-4.722-2.34c-.772-.392-1.63.36-1.343 1.176l1.71 4.974c.126.339.032.72-.213.977L.262 12.442c-.576.61-.14 1.619.702 1.628l5.629.008c.365.003.682.194.855.513l2.477 4.752c.395.744 1.506.668 1.776-.145l1.608-4.843c.38-2.063-.699-3.23-1.26-3.425-.633-.221-1.146-.11-1.32.34-.176.447-.064.614-.064.614.155-.443.62-.685 1.038-.539.418.146.632.624.477 1.067 0 0-.325 1.051-1.526.632-1.2-.419-.943-1.73-.858-1.973.085-.243.828-1.64 2.565-1.033 1.229.429 2.003 1.711 2.038 3.32l5.081-.965c.843-.161 1.074-1.239.377-1.74l-4.375-3.09c-.295-.214-.442-.553-.396-.915l.734-5.576z" opacity=".9" transform="translate(-99 -228) translate(98 226) translate(1 2) translate(0 5) translate(8.171 70.714)"/>
                                <path d="M6.845 14.113l-.27-.517c-.173-.32-.49-.51-.855-.513l-5.629-.008c-.03 0-.06-.005-.09-.008-.013.504.375.996.962 1.003l5.63.008c.087.001.172.014.252.035M14.95.007c-.001.023 0 .046-.003.07l-.734 5.576c-.046.361.102.701.396.914l.478.337c-.011-.083-.012-.169-.001-.256l.734-5.576c.061-.567-.372-1.006-.87-1.065M13.23 12.426c-.325.08-.585.311-.693.63l-1.708 5.147c-.177.532-.713.745-1.173.623l.269.517c.395.744 1.506.669 1.776-.145l1.608-4.843c.142-.769.083-1.414-.08-1.93M19.857 10.653l-.472-.334c.063.473-.225.973-.778 1.078l-4.367.83c.096.352.15.731.16 1.131l5.08-.965c.843-.161 1.074-1.239.377-1.74" transform="translate(-99 -228) translate(98 226) translate(1 2) translate(0 5) translate(8.171 70.714)"/>
                            </g>
                            <g stroke="#612273" stroke-linecap="round" stroke-width=".584">
                                <path d="M.02 4.162L4.121.065M4.121 4.162L.02.065" transform="translate(-99 -228) translate(98 226) translate(1 2) translate(0 5) translate(222.515 .404)"/>
                            </g>
                            <g stroke="#612273" stroke-linecap="round" stroke-width=".584">
                                <path d="M.278 4.162L4.379.065M4.379 4.162L.278.065" transform="translate(-99 -228) translate(98 226) translate(1 2) translate(0 5) translate(33.384 64.553)"/>
                            </g>
                            <path stroke="#EB3D72" stroke-linecap="round" stroke-width=".584" d="M171.586 60.026L171.184 51.896M175.454 55.76L167.315 56.162" transform="translate(-99 -228) translate(98 226) translate(1 2) translate(0 5)"/>
                            <path stroke="#32C4AA" stroke-linecap="round" stroke-width=".584" d="M210.208 40.692L214.784 38.502M213.592 41.883L211.4 37.312" transform="translate(-99 -228) translate(98 226) translate(1 2) translate(0 5)"/>
                            <g stroke="#612273" stroke-linecap="round" stroke-width=".584" opacity=".4">
                                <path d="M2.412 6.743L3.807.914M6.027 4.526L.192 3.131" transform="translate(-99 -228) translate(98 226) translate(1 2) translate(0 5) translate(77.354 26.397)"/>
                            </g>
                            <path stroke="#EB3D72" stroke-linecap="round" stroke-width=".584" d="M120.923 37.598c-.43.43-1.024.695-1.68.695-1.312 0-2.375-1.062-2.375-2.373 0-1.31 1.063-2.373 2.375-2.373s2.375 1.063 2.375 2.373c0 .655-.266 1.248-.695 1.678" transform="translate(-99 -228) translate(98 226) translate(1 2) translate(0 5)"/>
                            <path stroke="#612273" stroke-linecap="round" stroke-width=".584" d="M179.876 31.567c-.43.43-1.023.695-1.68.695-1.311 0-2.374-1.062-2.374-2.373 0-1.31 1.063-2.372 2.375-2.372 1.311 0 2.375 1.062 2.375 2.372 0 .656-.266 1.249-.696 1.678" transform="translate(-99 -228) translate(98 226) translate(1 2) translate(0 5)"/>
                        </g>
                    </g>
                    <g fill="#0534FF" fill-rule="nonzero">
                        <g>
                            <path d="M20.206 2.291c-.633 0-1.145-.514-1.145-1.147 0-.631.512-1.144 1.145-1.144.632 0 1.145.513 1.145 1.144 0 .633-.513 1.147-1.145 1.147M20.206 10.274c-.633 0-1.145-.511-1.145-1.144 0-.633.512-1.146 1.145-1.146.632 0 1.145.513 1.145 1.146 0 .633-.513 1.144-1.145 1.144M20.206 18.261c-.633 0-1.145-.515-1.145-1.146 0-.634.512-1.146 1.145-1.146.632 0 1.145.512 1.145 1.146 0 .631-.513 1.146-1.145 1.146M20.206 26.246c-.633 0-1.145-.514-1.145-1.147 0-.631.512-1.146 1.145-1.146.632 0 1.145.515 1.145 1.146 0 .633-.513 1.147-1.145 1.147M20.206 34.229c-.633 0-1.145-.511-1.145-1.145 0-.633.512-1.145 1.145-1.145.632 0 1.145.512 1.145 1.145 0 .634-.513 1.145-1.145 1.145M20.206 42.215c-.633 0-1.145-.514-1.145-1.146 0-.633.512-1.145 1.145-1.145.632 0 1.145.512 1.145 1.145 0 .632-.513 1.146-1.145 1.146M20.206 50.199c-.633 0-1.145-.513-1.145-1.145 0-.633.512-1.146 1.145-1.146.632 0 1.145.513 1.145 1.146 0 .632-.513 1.145-1.145 1.145M13.852 2.291c-.632 0-1.145-.514-1.145-1.147C12.707.513 13.22 0 13.852 0c.633 0 1.145.513 1.145 1.144 0 .633-.512 1.147-1.145 1.147M13.852 10.274c-.632 0-1.145-.511-1.145-1.144 0-.633.513-1.146 1.145-1.146.633 0 1.145.513 1.145 1.146 0 .633-.512 1.144-1.145 1.144M13.852 18.261c-.632 0-1.145-.515-1.145-1.146 0-.634.513-1.146 1.145-1.146.633 0 1.145.512 1.145 1.146 0 .631-.512 1.146-1.145 1.146M13.852 26.246c-.632 0-1.145-.514-1.145-1.147 0-.631.513-1.146 1.145-1.146.633 0 1.145.515 1.145 1.146 0 .633-.512 1.147-1.145 1.147M13.852 34.229c-.632 0-1.145-.511-1.145-1.145 0-.633.513-1.145 1.145-1.145.633 0 1.145.512 1.145 1.145 0 .634-.512 1.145-1.145 1.145M13.852 42.215c-.632 0-1.145-.514-1.145-1.146 0-.633.513-1.145 1.145-1.145.633 0 1.145.512 1.145 1.145 0 .632-.512 1.146-1.145 1.146M13.852 50.199c-.632 0-1.145-.513-1.145-1.145 0-.633.513-1.146 1.145-1.146.633 0 1.145.513 1.145 1.146 0 .632-.512 1.145-1.145 1.145M7.5 2.291c-.634 0-1.146-.514-1.146-1.147C6.354.513 6.866 0 7.5 0c.632 0 1.144.513 1.144 1.144 0 .633-.512 1.147-1.144 1.147M7.5 10.274c-.634 0-1.146-.511-1.146-1.144 0-.633.512-1.146 1.146-1.146.632 0 1.144.513 1.144 1.146 0 .633-.512 1.144-1.144 1.144M7.5 18.261c-.634 0-1.146-.515-1.146-1.146 0-.634.512-1.146 1.146-1.146.632 0 1.144.512 1.144 1.146 0 .631-.512 1.146-1.144 1.146M7.5 26.246c-.634 0-1.146-.514-1.146-1.147 0-.631.512-1.146 1.146-1.146.632 0 1.144.515 1.144 1.146 0 .633-.512 1.147-1.144 1.147M7.5 34.229c-.634 0-1.146-.511-1.146-1.145 0-.633.512-1.145 1.146-1.145.632 0 1.144.512 1.144 1.145 0 .634-.512 1.145-1.144 1.145M7.5 42.215c-.634 0-1.146-.514-1.146-1.146 0-.633.512-1.145 1.146-1.145.632 0 1.144.512 1.144 1.145 0 .632-.512 1.146-1.144 1.146M7.5 50.199c-.634 0-1.146-.513-1.146-1.145 0-.633.512-1.146 1.146-1.146.632 0 1.144.513 1.144 1.146 0 .632-.512 1.145-1.144 1.145M1.145 2.291C.513 2.291 0 1.777 0 1.144 0 .513.513 0 1.145 0s1.146.513 1.146 1.144c0 .633-.514 1.147-1.146 1.147M1.145 10.274C.513 10.274 0 9.763 0 9.13c0-.633.513-1.146 1.145-1.146s1.146.513 1.146 1.146c0 .633-.514 1.144-1.146 1.144M1.145 18.261C.513 18.261 0 17.746 0 17.115c0-.634.513-1.146 1.145-1.146s1.146.512 1.146 1.146c0 .631-.514 1.146-1.146 1.146M1.145 26.246C.513 26.246 0 25.732 0 25.099c0-.631.513-1.146 1.145-1.146s1.146.515 1.146 1.146c0 .633-.514 1.147-1.146 1.147M1.145 34.229C.513 34.229 0 33.718 0 33.084c0-.633.513-1.145 1.145-1.145s1.146.512 1.146 1.145c0 .634-.514 1.145-1.146 1.145M1.145 42.215C.513 42.215 0 41.701 0 41.069c0-.633.513-1.145 1.145-1.145s1.146.512 1.146 1.145c0 .632-.514 1.146-1.146 1.146M1.145 50.199C.513 50.199 0 49.686 0 49.054c0-.633.513-1.146 1.145-1.146s1.146.513 1.146 1.146c0 .632-.514 1.145-1.146 1.145" transform="translate(-99 -228) translate(98 226) translate(1 2) translate(152) rotate(90 25.5 26)"/>
                        </g>
                    </g>
                </g>
            </g>
        </g>
    </g>
</svg>
