<svg xmlns="http://www.w3.org/2000/svg" width="226" height="95" viewBox="0 0 226 95">
    <g fill="none" fill-rule="evenodd">
        <g>
            <g>
                <g>
                    <g opacity=".25">
                        <g opacity=".7">
                            <g style="mix-blend-mode:multiply">
                                <path fill="#32C4AA" fill-rule="nonzero" d="M139.52 30.22c0 2.414-1.945 4.37-4.345 4.37-2.4 0-4.345-1.956-4.345-4.37 0-2.413 1.945-4.37 4.345-4.37 2.4 0 4.345 1.957 4.345 4.37" opacity=".5" transform="translate(-358 -227) translate(355 226) translate(3 1) translate(0 16) matrix(-1 0 0 1 226 0)"/>
                                <path fill="#FED150" fill-rule="nonzero" d="M220.147 19.857c3.081 0 5.58 2.512 5.58 5.611 0 3.1-2.499 5.612-5.58 5.612-3.082 0-5.58-2.513-5.58-5.612s2.498-5.611 5.58-5.611" opacity=".6" transform="translate(-358 -227) translate(355 226) translate(3 1) translate(0 16) matrix(-1 0 0 1 226 0)"/>
                                <path fill="#FED150" fill-rule="nonzero" d="M18.28 1.247c.104-.96-1-1.603-1.788-1.032L11.21 4.048c-.332.242-.769.28-1.152.095L4.6 1.423c-.892-.457-1.884.417-1.552 1.366l1.976 5.787c.146.394.037.837-.246 1.136L.303 14.473c-.666.71-.163 1.884.81 1.895l6.505.01c.422.002.788.225.989.595l2.861 5.528c.457.866 1.74.778 2.053-.168L15.38 16.7c.44-2.4-.807-3.757-1.456-3.985-.731-.257-1.324-.126-1.526.395-.202.522-.073.715-.073.715.179-.515.716-.796 1.2-.626.483.17.73.726.55 1.241 0 0-.375 1.223-1.763.735-1.388-.487-1.09-2.012-.991-2.295.098-.283.957-1.907 2.963-1.202 1.42.499 2.315 1.99 2.356 3.863l5.87-1.124c.975-.187 1.242-1.44.437-2.024l-5.057-3.595c-.34-.248-.51-.643-.457-1.064l.848-6.486z" opacity=".9" transform="translate(-358 -227) translate(355 226) translate(3 1) translate(0 16) matrix(-1 0 0 1 226 0)"/>
                                <path fill="#FED150" fill-rule="nonzero" d="M17.275.008c-.001.027 0 .053-.003.081l-.848 6.487c-.054.42.117.816.457 1.063l.552.393c-.012-.097-.014-.197 0-.298l.847-6.487c.071-.66-.43-1.17-1.005-1.24M15.287 14.455c-.374.093-.675.362-.8.734l-1.974 5.986c-.204.62-.823.867-1.355.726l.31.6c.457.866 1.74.778 2.053-.168L15.38 16.7c.164-.894.096-1.644-.092-2.244" transform="translate(-358 -227) translate(355 226) translate(3 1) translate(0 16) matrix(-1 0 0 1 226 0)"/>
                                <path stroke="#32C4AA" stroke-linecap="round" stroke-width=".5" d="M208.507 41.884L212.861 39.786M211.727 43.025L209.641 38.645" transform="translate(-358 -227) translate(355 226) translate(3 1) translate(0 16) matrix(-1 0 0 1 226 0)"/>
                                <g stroke="#612273" stroke-linecap="round" stroke-width=".5" opacity=".4">
                                    <path d="M2.295 6.46L3.623.875M5.735 4.335L.183 3" transform="translate(-358 -227) translate(355 226) translate(3 1) translate(0 16) matrix(-1 0 0 1 226 0) translate(105.09 11.286)"/>
                                </g>
                                <path stroke="#EB3D72" stroke-linecap="round" stroke-width=".5" d="M118.704 29.11c-.608.61-1.447.989-2.375.989-1.855 0-3.359-1.512-3.359-3.378s1.504-3.378 3.36-3.378c1.854 0 3.358 1.512 3.358 3.378 0 .933-.376 1.777-.984 2.388" transform="translate(-358 -227) translate(355 226) translate(3 1) translate(0 16) matrix(-1 0 0 1 226 0)"/>
                                <path stroke="#32C4AA" stroke-linecap="round" stroke-width=".5" d="M150.408 77.727c-.607.61-1.447.99-2.375.99-1.855 0-3.359-1.513-3.359-3.379s1.504-3.378 3.36-3.378c1.854 0 3.358 1.512 3.358 3.378 0 .933-.376 1.777-.984 2.389" transform="translate(-358 -227) translate(355 226) translate(3 1) translate(0 16) matrix(-1 0 0 1 226 0)"/>
                                <path fill="#612273" fill-rule="nonzero" d="M61.653 29.551c0 5.197-4.188 9.41-9.356 9.41-5.167 0-9.356-4.213-9.356-9.41 0-5.196 4.19-9.41 9.356-9.41 5.168 0 9.356 4.214 9.356 9.41" opacity=".8" transform="translate(-358 -227) translate(355 226) translate(3 1) translate(0 16) matrix(-1 0 0 1 226 0)"/>
                                <path fill="#FED150" fill-rule="nonzero" d="M80.843 36.947c0 3.1-2.498 5.612-5.58 5.612-3.081 0-5.579-2.513-5.579-5.612s2.498-5.611 5.58-5.611c3.08 0 5.579 2.512 5.579 5.611" transform="translate(-358 -227) translate(355 226) translate(3 1) translate(0 16) matrix(-1 0 0 1 226 0)"/>
                                <path stroke="#EB3D72" stroke-linecap="round" stroke-width=".5" d="M35.826 28.44c-.607.611-1.447.99-2.374.99-1.856 0-3.36-1.513-3.36-3.379 0-1.865 1.504-3.378 3.36-3.378 1.855 0 3.358 1.513 3.358 3.378 0 .933-.376 1.778-.984 2.389" transform="translate(-358 -227) translate(355 226) translate(3 1) translate(0 16) matrix(-1 0 0 1 226 0)"/>
                                <path stroke="#32C4AA" stroke-linecap="round" stroke-width=".5" d="M67.53 77.057c-.607.611-1.447.99-2.375.99-1.855 0-3.358-1.513-3.358-3.378 0-1.866 1.503-3.378 3.358-3.378 1.856 0 3.36 1.512 3.36 3.378 0 .932-.377 1.777-.984 2.388" transform="translate(-358 -227) translate(355 226) translate(3 1) translate(0 16) matrix(-1 0 0 1 226 0)"/>
                                <path stroke="#EB3D72" stroke-linecap="round" stroke-width=".5" d="M119.5 14.096c-.41.412-.975.666-1.599.666-1.248 0-2.26-1.018-2.26-2.273 0-1.256 1.012-2.273 2.26-2.273 1.248 0 2.26 1.017 2.26 2.273 0 .628-.253 1.196-.662 1.607" transform="translate(-358 -227) translate(355 226) translate(3 1) translate(0 16) matrix(-1 0 0 1 226 0)"/>
                                <path stroke="#612273" stroke-linecap="round" stroke-width=".5" d="M175.991 34.366c-.409.411-.974.665-1.598.665-1.248 0-2.26-1.017-2.26-2.273 0-1.255 1.012-2.273 2.26-2.273 1.248 0 2.26 1.018 2.26 2.273 0 .628-.253 1.196-.662 1.608" transform="translate(-358 -227) translate(355 226) translate(3 1) translate(0 16) matrix(-1 0 0 1 226 0)"/>
                            </g>
                        </g>
                    </g>
                    <g fill="#DF36C9" fill-rule="nonzero">
                        <g>
                            <path d="M20.206 2.291c-.633 0-1.145-.514-1.145-1.147 0-.631.512-1.144 1.145-1.144.632 0 1.145.513 1.145 1.144 0 .633-.513 1.147-1.145 1.147M20.206 10.274c-.633 0-1.145-.511-1.145-1.144 0-.633.512-1.146 1.145-1.146.632 0 1.145.513 1.145 1.146 0 .633-.513 1.144-1.145 1.144M20.206 18.261c-.633 0-1.145-.515-1.145-1.146 0-.634.512-1.146 1.145-1.146.632 0 1.145.512 1.145 1.146 0 .631-.513 1.146-1.145 1.146M20.206 26.246c-.633 0-1.145-.514-1.145-1.147 0-.631.512-1.146 1.145-1.146.632 0 1.145.515 1.145 1.146 0 .633-.513 1.147-1.145 1.147M20.206 34.229c-.633 0-1.145-.511-1.145-1.145 0-.633.512-1.145 1.145-1.145.632 0 1.145.512 1.145 1.145 0 .634-.513 1.145-1.145 1.145M20.206 42.215c-.633 0-1.145-.514-1.145-1.146 0-.633.512-1.145 1.145-1.145.632 0 1.145.512 1.145 1.145 0 .632-.513 1.146-1.145 1.146M20.206 50.199c-.633 0-1.145-.513-1.145-1.145 0-.633.512-1.146 1.145-1.146.632 0 1.145.513 1.145 1.146 0 .632-.513 1.145-1.145 1.145M13.852 2.291c-.632 0-1.145-.514-1.145-1.147C12.707.513 13.22 0 13.852 0c.633 0 1.145.513 1.145 1.144 0 .633-.512 1.147-1.145 1.147M13.852 10.274c-.632 0-1.145-.511-1.145-1.144 0-.633.513-1.146 1.145-1.146.633 0 1.145.513 1.145 1.146 0 .633-.512 1.144-1.145 1.144M13.852 18.261c-.632 0-1.145-.515-1.145-1.146 0-.634.513-1.146 1.145-1.146.633 0 1.145.512 1.145 1.146 0 .631-.512 1.146-1.145 1.146M13.852 26.246c-.632 0-1.145-.514-1.145-1.147 0-.631.513-1.146 1.145-1.146.633 0 1.145.515 1.145 1.146 0 .633-.512 1.147-1.145 1.147M13.852 34.229c-.632 0-1.145-.511-1.145-1.145 0-.633.513-1.145 1.145-1.145.633 0 1.145.512 1.145 1.145 0 .634-.512 1.145-1.145 1.145M13.852 42.215c-.632 0-1.145-.514-1.145-1.146 0-.633.513-1.145 1.145-1.145.633 0 1.145.512 1.145 1.145 0 .632-.512 1.146-1.145 1.146M13.852 50.199c-.632 0-1.145-.513-1.145-1.145 0-.633.513-1.146 1.145-1.146.633 0 1.145.513 1.145 1.146 0 .632-.512 1.145-1.145 1.145M7.5 2.291c-.634 0-1.146-.514-1.146-1.147C6.354.513 6.866 0 7.5 0c.632 0 1.144.513 1.144 1.144 0 .633-.512 1.147-1.144 1.147M7.5 10.274c-.634 0-1.146-.511-1.146-1.144 0-.633.512-1.146 1.146-1.146.632 0 1.144.513 1.144 1.146 0 .633-.512 1.144-1.144 1.144M7.5 18.261c-.634 0-1.146-.515-1.146-1.146 0-.634.512-1.146 1.146-1.146.632 0 1.144.512 1.144 1.146 0 .631-.512 1.146-1.144 1.146M7.5 26.246c-.634 0-1.146-.514-1.146-1.147 0-.631.512-1.146 1.146-1.146.632 0 1.144.515 1.144 1.146 0 .633-.512 1.147-1.144 1.147M7.5 34.229c-.634 0-1.146-.511-1.146-1.145 0-.633.512-1.145 1.146-1.145.632 0 1.144.512 1.144 1.145 0 .634-.512 1.145-1.144 1.145M7.5 42.215c-.634 0-1.146-.514-1.146-1.146 0-.633.512-1.145 1.146-1.145.632 0 1.144.512 1.144 1.145 0 .632-.512 1.146-1.144 1.146M7.5 50.199c-.634 0-1.146-.513-1.146-1.145 0-.633.512-1.146 1.146-1.146.632 0 1.144.513 1.144 1.146 0 .632-.512 1.145-1.144 1.145M1.145 2.291C.513 2.291 0 1.777 0 1.144 0 .513.513 0 1.145 0s1.146.513 1.146 1.144c0 .633-.514 1.147-1.146 1.147M1.145 10.274C.513 10.274 0 9.763 0 9.13c0-.633.513-1.146 1.145-1.146s1.146.513 1.146 1.146c0 .633-.514 1.144-1.146 1.144M1.145 18.261C.513 18.261 0 17.746 0 17.115c0-.634.513-1.146 1.145-1.146s1.146.512 1.146 1.146c0 .631-.514 1.146-1.146 1.146M1.145 26.246C.513 26.246 0 25.732 0 25.099c0-.631.513-1.146 1.145-1.146s1.146.515 1.146 1.146c0 .633-.514 1.147-1.146 1.147M1.145 34.229C.513 34.229 0 33.718 0 33.084c0-.633.513-1.145 1.145-1.145s1.146.512 1.146 1.145c0 .634-.514 1.145-1.146 1.145M1.145 42.215C.513 42.215 0 41.701 0 41.069c0-.633.513-1.145 1.145-1.145s1.146.512 1.146 1.145c0 .632-.514 1.146-1.146 1.146M1.145 50.199C.513 50.199 0 49.686 0 49.054c0-.633.513-1.146 1.145-1.146s1.146.513 1.146 1.146c0 .632-.514 1.145-1.146 1.145" transform="translate(-358 -227) translate(355 226) translate(3 1) translate(100) rotate(90 25.5 26)"/>
                        </g>
                    </g>
                </g>
            </g>
        </g>
    </g>
</svg>
