<svg xmlns="http://www.w3.org/2000/svg" width="214" height="94" viewBox="0 0 214 94">
    <g fill="none" fill-rule="evenodd">
        <g>
            <g>
                <g>
                    <g opacity=".246">
                        <g opacity=".7">
                            <g style="mix-blend-mode:multiply">
                                <path fill="#32C4AA" fill-rule="nonzero" d="M117.112 28.69c0 2.292-1.842 4.15-4.114 4.15-2.273 0-4.115-1.858-4.115-4.15 0-2.29 1.842-4.148 4.115-4.148 2.272 0 4.114 1.857 4.114 4.149" opacity=".5" transform="translate(-618 -241) translate(611 226) translate(7 15) rotate(180 99.5 37.5)"/>
                                <path fill="#FED150" fill-rule="nonzero" d="M193.458 18.851c2.918 0 5.283 2.385 5.283 5.328 0 2.942-2.365 5.327-5.283 5.327s-5.283-2.385-5.283-5.327c0-2.943 2.365-5.328 5.283-5.328" opacity=".6" transform="translate(-618 -241) translate(611 226) translate(7 15) rotate(180 99.5 37.5)"/>
                                <path fill="#FED150" fill-rule="nonzero" d="M1.358.008c-.001.025 0 .05-.003.077L.552 6.243c-.05.399.11.774.433 1.01l.523.372c-.012-.092-.014-.187-.001-.283l.803-6.158C2.377.557 1.903.072 1.358.008" transform="translate(-618 -241) translate(611 226) translate(7 15) rotate(180 99.5 37.5)"/>
                                <path stroke="#EB3D72" stroke-linecap="round" stroke-width=".5" d="M144.068 64.536L143.706 57.141M147.553 60.656L140.22 61.021" transform="translate(-618 -241) translate(611 226) translate(7 15) rotate(180 99.5 37.5)"/>
                                <path stroke="#32C4AA" stroke-linecap="round" stroke-width=".5" d="M182.436 39.763L186.559 37.771M185.485 40.846L183.509 36.689" transform="translate(-618 -241) translate(611 226) translate(7 15) rotate(180 99.5 37.5)"/>
                                <g stroke="#612273" stroke-linecap="round" stroke-width=".5" opacity=".4">
                                    <path d="M2.173 6.133L3.431.831M5.431 4.116L.173 2.848" transform="translate(-618 -241) translate(611 226) translate(7 15) rotate(180 99.5 37.5) translate(84.51 10.714)"/>
                                </g>
                                <path stroke="#EB3D72" stroke-linecap="round" stroke-width=".5" d="M97.401 27.636c-.575.58-1.37.939-2.248.939-1.757 0-3.181-1.436-3.181-3.207s1.424-3.207 3.18-3.207c1.757 0 3.181 1.436 3.181 3.207 0 .885-.356 1.687-.932 2.268" transform="translate(-618 -241) translate(611 226) translate(7 15) rotate(180 99.5 37.5)"/>
                                <path stroke="#32C4AA" stroke-linecap="round" stroke-width=".5" d="M127.422 73.791c-.575.58-1.37.94-2.249.94-1.756 0-3.18-1.436-3.18-3.207 0-1.772 1.424-3.208 3.18-3.208 1.757 0 3.18 1.436 3.18 3.208 0 .885-.355 1.687-.931 2.267" transform="translate(-618 -241) translate(611 226) translate(7 15) rotate(180 99.5 37.5)"/>
                                <path fill="#612273" fill-rule="nonzero" d="M43.38 28.055c0 4.933-3.967 8.933-8.86 8.933-4.892 0-8.859-4-8.859-8.933 0-4.934 3.967-8.933 8.86-8.933 4.892 0 8.859 4 8.859 8.933" opacity=".8" transform="translate(-618 -241) translate(611 226) translate(7 15) rotate(180 99.5 37.5)"/>
                                <path fill="#FED150" fill-rule="nonzero" d="M61.55 35.076c0 2.943-2.365 5.328-5.283 5.328s-5.283-2.385-5.283-5.328c0-2.942 2.365-5.327 5.283-5.327s5.283 2.385 5.283 5.327" transform="translate(-618 -241) translate(611 226) translate(7 15) rotate(180 99.5 37.5)"/>
                                <path stroke="#EB3D72" stroke-linecap="round" stroke-width=".5" d="M18.924 27c-.575.58-1.37.94-2.249.94-1.756 0-3.18-1.436-3.18-3.208 0-1.77 1.424-3.207 3.18-3.207 1.757 0 3.18 1.436 3.18 3.207 0 .886-.355 1.688-.93 2.268" transform="translate(-618 -241) translate(611 226) translate(7 15) rotate(180 99.5 37.5)"/>
                                <path stroke="#32C4AA" stroke-linecap="round" stroke-width=".5" d="M48.945 73.156c-.576.58-1.37.939-2.25.939-1.756 0-3.18-1.436-3.18-3.207s1.424-3.207 3.18-3.207c1.758 0 3.181 1.436 3.181 3.207 0 .885-.356 1.687-.931 2.268" transform="translate(-618 -241) translate(611 226) translate(7 15) rotate(180 99.5 37.5)"/>
                            </g>
                        </g>
                    </g>
                    <g fill="#FF6A00" fill-rule="nonzero">
                        <g>
                            <path d="M20.206 2.291c-.633 0-1.145-.514-1.145-1.147 0-.631.512-1.144 1.145-1.144.632 0 1.145.513 1.145 1.144 0 .633-.513 1.147-1.145 1.147M20.206 10.274c-.633 0-1.145-.511-1.145-1.144 0-.633.512-1.146 1.145-1.146.632 0 1.145.513 1.145 1.146 0 .633-.513 1.144-1.145 1.144M20.206 18.261c-.633 0-1.145-.515-1.145-1.146 0-.634.512-1.146 1.145-1.146.632 0 1.145.512 1.145 1.146 0 .631-.513 1.146-1.145 1.146M20.206 26.246c-.633 0-1.145-.514-1.145-1.147 0-.631.512-1.146 1.145-1.146.632 0 1.145.515 1.145 1.146 0 .633-.513 1.147-1.145 1.147M20.206 34.229c-.633 0-1.145-.511-1.145-1.145 0-.633.512-1.145 1.145-1.145.632 0 1.145.512 1.145 1.145 0 .634-.513 1.145-1.145 1.145M20.206 42.215c-.633 0-1.145-.514-1.145-1.146 0-.633.512-1.145 1.145-1.145.632 0 1.145.512 1.145 1.145 0 .632-.513 1.146-1.145 1.146M20.206 50.199c-.633 0-1.145-.513-1.145-1.145 0-.633.512-1.146 1.145-1.146.632 0 1.145.513 1.145 1.146 0 .632-.513 1.145-1.145 1.145M13.852 2.291c-.632 0-1.145-.514-1.145-1.147C12.707.513 13.22 0 13.852 0c.633 0 1.145.513 1.145 1.144 0 .633-.512 1.147-1.145 1.147M13.852 10.274c-.632 0-1.145-.511-1.145-1.144 0-.633.513-1.146 1.145-1.146.633 0 1.145.513 1.145 1.146 0 .633-.512 1.144-1.145 1.144M13.852 18.261c-.632 0-1.145-.515-1.145-1.146 0-.634.513-1.146 1.145-1.146.633 0 1.145.512 1.145 1.146 0 .631-.512 1.146-1.145 1.146M13.852 26.246c-.632 0-1.145-.514-1.145-1.147 0-.631.513-1.146 1.145-1.146.633 0 1.145.515 1.145 1.146 0 .633-.512 1.147-1.145 1.147M13.852 34.229c-.632 0-1.145-.511-1.145-1.145 0-.633.513-1.145 1.145-1.145.633 0 1.145.512 1.145 1.145 0 .634-.512 1.145-1.145 1.145M13.852 42.215c-.632 0-1.145-.514-1.145-1.146 0-.633.513-1.145 1.145-1.145.633 0 1.145.512 1.145 1.145 0 .632-.512 1.146-1.145 1.146M13.852 50.199c-.632 0-1.145-.513-1.145-1.145 0-.633.513-1.146 1.145-1.146.633 0 1.145.513 1.145 1.146 0 .632-.512 1.145-1.145 1.145M7.5 2.291c-.634 0-1.146-.514-1.146-1.147C6.354.513 6.866 0 7.5 0c.632 0 1.144.513 1.144 1.144 0 .633-.512 1.147-1.144 1.147M7.5 10.274c-.634 0-1.146-.511-1.146-1.144 0-.633.512-1.146 1.146-1.146.632 0 1.144.513 1.144 1.146 0 .633-.512 1.144-1.144 1.144M7.5 18.261c-.634 0-1.146-.515-1.146-1.146 0-.634.512-1.146 1.146-1.146.632 0 1.144.512 1.144 1.146 0 .631-.512 1.146-1.144 1.146M7.5 26.246c-.634 0-1.146-.514-1.146-1.147 0-.631.512-1.146 1.146-1.146.632 0 1.144.515 1.144 1.146 0 .633-.512 1.147-1.144 1.147M7.5 34.229c-.634 0-1.146-.511-1.146-1.145 0-.633.512-1.145 1.146-1.145.632 0 1.144.512 1.144 1.145 0 .634-.512 1.145-1.144 1.145M7.5 42.215c-.634 0-1.146-.514-1.146-1.146 0-.633.512-1.145 1.146-1.145.632 0 1.144.512 1.144 1.145 0 .632-.512 1.146-1.144 1.146M7.5 50.199c-.634 0-1.146-.513-1.146-1.145 0-.633.512-1.146 1.146-1.146.632 0 1.144.513 1.144 1.146 0 .632-.512 1.145-1.144 1.145M1.145 2.291C.513 2.291 0 1.777 0 1.144 0 .513.513 0 1.145 0s1.146.513 1.146 1.144c0 .633-.514 1.147-1.146 1.147M1.145 10.274C.513 10.274 0 9.763 0 9.13c0-.633.513-1.146 1.145-1.146s1.146.513 1.146 1.146c0 .633-.514 1.144-1.146 1.144M1.145 18.261C.513 18.261 0 17.746 0 17.115c0-.634.513-1.146 1.145-1.146s1.146.512 1.146 1.146c0 .631-.514 1.146-1.146 1.146M1.145 26.246C.513 26.246 0 25.732 0 25.099c0-.631.513-1.146 1.145-1.146s1.146.515 1.146 1.146c0 .633-.514 1.147-1.146 1.147M1.145 34.229C.513 34.229 0 33.718 0 33.084c0-.633.513-1.145 1.145-1.145s1.146.512 1.146 1.145c0 .634-.514 1.145-1.146 1.145M1.145 42.215C.513 42.215 0 41.701 0 41.069c0-.633.513-1.145 1.145-1.145s1.146.512 1.146 1.145c0 .632-.514 1.146-1.146 1.146M1.145 50.199C.513 50.199 0 49.686 0 49.054c0-.633.513-1.146 1.145-1.146s1.146.513 1.146 1.146c0 .632-.514 1.145-1.146 1.145" transform="translate(-618 -241) translate(611 226) translate(7 15) translate(162 71) rotate(90 25.5 26)"/>
                        </g>
                    </g>
                </g>
            </g>
        </g>
    </g>
</svg>
