<svg xmlns="http://www.w3.org/2000/svg" width="1418" height="1297" viewBox="0 0 1418 1297">
    <g fill="none" fill-rule="evenodd">
        <g>
            <g>
                <g opacity=".85" transform="translate(20 -90) translate(-19.705 90.226) rotate(-16 4563.479 -4131.965)">
                    <circle cx="20" cy="20" r="17.391" stroke="#CFDAE6" stroke-width=".8"/>
                    <path stroke="#DDE4EB" stroke-width=".783" d="M19.972 4.348c-5.426 0-10.207 2.76-13.015 6.955m13.015 24.35h0c5.697 0 10.684-3.045 13.421-7.595"/>
                    <circle cx="20" cy="2.609" r="2.609" fill="#F0F2F5" stroke="#CFDAE6" stroke-width=".87"/>
                    <circle cx="37.391" cy="20" r="2.609" fill="#CFDAE6"/>
                    <circle cx="2.609" cy="20" r="2.609" fill="#F7E1AD"/>
                    <circle cx="20" cy="37.391" r="2.609" fill="#CFDAE6"/>
                </g>
                <g opacity=".8" transform="translate(20 -90) translate(-19.705 90.226) rotate(-7 5534.764 176.829)">
                    <ellipse cx="63.575" cy="32.468" fill="#CFDAE6" opacity=".25" rx="21.783" ry="21.766"/>
                    <ellipse cx="5.987" cy="13.867" fill="#CFDAE6" opacity=".6" rx="5.217" ry="5.213"/>
                    <path fill="#CFDAE6" d="M38.135 88.352c5.763 0 10.435-4.668 10.435-10.427 0-5.758-4.672-10.426-10.435-10.426-5.763 0-10.434 4.668-10.434 10.426 0 5.759 4.671 10.427 10.434 10.427z" opacity=".45"/>
                    <path stroke="#CFDAE6" stroke-linecap="round" stroke-linejoin="round" stroke-width="1.739" d="M64.278 33.17L119.186 16.565"/>
                    <path stroke="#E0B4B7" stroke-dasharray="1.405 2.108" stroke-linecap="round" stroke-linejoin="round" stroke-width=".703" d="M42.143 26.5L7.712 14.564" opacity=".7"/>
                    <path stroke="#BACAD9" stroke-dasharray="1.405 2.108" stroke-linecap="round" stroke-linejoin="round" stroke-width=".703" d="M63.926 33.522L43.672 69.325"/>
                    <g fill="#CFDAE6" transform="rotate(30 60.031 230.21)">
                        <ellipse cx="9.135" cy="9.128" opacity=".45" rx="9.135" ry="9.128"/>
                        <path d="M18.27 18.255c0-5.04-4.09-9.127-9.135-9.127S0 13.214 0 18.255h18.27z" transform="rotate(180 9.135 13.692)"/>
                    </g>
                </g>
                <g transform="translate(20 -90) translate(-19.705 90.226) rotate(-5 228.519 1.885)">
                    <ellipse cx="29.118" cy="29.14" fill="#CFDAE6" opacity=".25" rx="29.118" ry="29.14"/>
                    <ellipse cx="29.118" cy="29.14" fill="#CFDAE6" opacity=".3" rx="21.569" ry="21.585"/>
                    <ellipse cx="179.02" cy="138.146" stroke="#CFDAE6" opacity=".4" rx="23.725" ry="23.744"/>
                    <ellipse cx="29.118" cy="29.14" fill="#BACAD9" opacity=".5" rx="10.784" ry="10.793"/>
                    <path fill="#BACAD9" d="M29.118 39.933V18.348c-5.956 0-10.785 4.832-10.785 10.792s4.829 10.793 10.785 10.793z"/>
                    <g fill="#E6A1A6" opacity=".45" transform="translate(172 131)">
                        <ellipse cx="7.02" cy="7.146" rx="6.471" ry="6.476"/>
                        <path d="M.549 13.622c3.574 0 6.47-2.9 6.47-6.476S4.124.671.55.671v12.951z" transform="matrix(-1 0 0 1 7.569 0)"/>
                    </g>
                    <ellipse cx="218.382" cy="138.686" fill="#CFDAE6" rx="1.618" ry="1.619"/>
                    <ellipse cx="179.559" cy="175.381" fill="#E0B4B7" opacity=".35" rx="1.618" ry="1.619"/>
                    <ellipse cx="180.098" cy="102.53" fill="#E0B4B7" opacity=".35" rx="2.157" ry="2.159"/>
                    <path stroke="#CFDAE6" d="M28.999 29.967L171.151 132.876" opacity=".8"/>
                </g>
                <g opacity=".8" transform="translate(20 -90) translate(-19.705 90.226) rotate(-11 1102.05 -6967.478)">
                    <ellipse cx="43.814" cy="32" stroke="#CFDAE6" stroke-width=".941" rx="11.186" ry="11.294"/>
                    <g fill="#BACAD9" transform="translate(34.597 23.111)">
                        <ellipse cx="9.185" cy="8.889" opacity=".45" rx="8.475" ry="8.556"/>
                        <path d="M9.185 17.445c4.68 0 8.475-3.83 8.475-8.556 0-4.726-3.794-8.556-8.475-8.556v17.112z"/>
                    </g>
                    <path stroke="#CFDAE6" stroke-width=".941" d="M34.66 24.81L5.717 4.769"/>
                    <ellipse cx="3.263" cy="3.294" stroke="#CFDAE6" stroke-width=".941" rx="3.263" ry="3.294"/>
                    <ellipse cx="2.797" cy="61.176" fill="#F7E1AD" rx="2.797" ry="2.824"/>
                    <path stroke="#CFDAE6" stroke-width=".941" d="M34.631 39.292L5.064 59.785"/>
                </g>
                <g opacity=".33" transform="translate(20 -90) translate(-19.705 90.226) rotate(-10 6415.258 -3462.421)">
                    <g fill="#BACAD9" transform="rotate(-85 127.141 -12.32)">
                        <circle cx="11.667" cy="11.667" r="11.667" opacity=".45"/>
                        <path d="M23.333 23.333c0-6.443-5.223-11.666-11.666-11.666C5.223 11.667 0 16.89 0 23.333h23.333z" transform="rotate(180 11.667 17.5)"/>
                    </g>
                    <circle cx="201.833" cy="87.5" r="5.833" fill="#CFDAE6"/>
                    <path stroke="#BACAD9" stroke-width="1.167" d="M143.5 88.813L155.071 17.604M17.5 37.333L127.466 97.645"/>
                    <path stroke="#CFDAE6" stroke-width="1.167" d="M143.903 120.302L174.935 231.571 38.5 147.511 126.367 110.833"/>
                    <path stroke="#E0B4B7" stroke-width="1.167" d="M159.833 99.745L195.417 89.25" opacity=".6"/>
                    <path stroke="#BACAD9" stroke-width="1.167" d="M205.333 82.137L238.719 36.167"/>
                    <path stroke="#CFDAE6" stroke-width="1.167" d="M266.723 132.232L207.083 90.417"/>
                    <circle cx="156.917" cy="8.75" r="8.75" fill="#C1D1E0"/>
                    <circle cx="271.25" cy="135.917" r="8.75" fill="#D3DDE6"/>
                    <circle cx="39.083" cy="148.75" r="5.25" fill="#C1D1E0"/>
                    <circle cx="8.75" cy="33.25" r="8.75" fill="#D1DEED" fill-opacity=".6"/>
                    <circle cx="243.833" cy="30.333" r="5.833" fill="#D1DEED" fill-opacity=".6"/>
                    <circle cx="175.583" cy="232.75" r="5.25" fill="#E0B4B7"/>
                </g>
            </g>
        </g>
    </g>
</svg>
